<svg xmlns="http://www.w3.org/2000/svg" viewBox="0 0 32 32" width="32" height="32" role="img" aria-label="Little Tomato logo">
  <path d="M14 4.5c-1.7.8-2.5 2.6-2.1 4.4C7.5 8.5 4 11.8 4 17.2 4 22.9 8.7 27 15.3 27S27 22.9 27 17.2c0-5.2-3.6-8.5-8.2-8.6.6-1.9-1.2-4-3.8-4z" fill="#E0492F"/>
  <path d="M16 6.2c.9-1.5 2.5-2.4 4.2-2.1-.5 1.7-1.9 2.9-3.6 3.2m-1.6.1C13.4 6 11.9 5.2 10 5.5c.4 1.6 1.5 2.8 3.1 3.2" stroke="#3FA34D" stroke-width="1.8" fill="none" stroke-linecap="round" stroke-linejoin="round"/>
  <ellipse cx="11.5" cy="14.5" rx="2.4" ry="1.6" fill="#fff" opacity="0.25"/>
</svg>
